<mxfile host="app.diagrams.net" modified="2020-11-11T20:51:24.930Z" agent="5.0 (Windows NT 10.0; Win64; x64) AppleWebKit/537.36 (KHTML, like Gecko) Chrome/86.0.4240.111 Safari/537.36" etag="E9e0fI-UriXms1zF5C2-" version="13.9.3" type="github">
  <diagram id="3J3K2VdclZTQNkdBt2nY" name="Page-1">
    <mxGraphModel dx="1662" dy="762" grid="1" gridSize="10" guides="1" tooltips="1" connect="1" arrows="1" fold="1" page="1" pageScale="1" pageWidth="850" pageHeight="1100" math="0" shadow="0">
      <root>
        <mxCell id="0" />
        <mxCell id="1" parent="0" />
        <mxCell id="ZraUH0Yu_4j9brqtkidw-1" value="" style="curved=1;endArrow=classic;html=1;exitX=0.25;exitY=0;exitDx=0;exitDy=0;" edge="1" parent="1" source="ZraUH0Yu_4j9brqtkidw-7">
          <mxGeometry width="50" height="50" relative="1" as="geometry">
            <mxPoint x="380" y="365" as="sourcePoint" />
            <mxPoint x="610" y="220" as="targetPoint" />
            <Array as="points">
              <mxPoint x="370" y="355" />
              <mxPoint x="410" y="335" />
              <mxPoint x="450" y="365" />
              <mxPoint x="440" y="415" />
              <mxPoint x="400" y="435" />
              <mxPoint x="360" y="425" />
              <mxPoint x="340" y="410" />
              <mxPoint x="330" y="370" />
              <mxPoint x="330" y="345" />
              <mxPoint x="350" y="315" />
              <mxPoint x="360" y="305" />
              <mxPoint x="380" y="290" />
              <mxPoint x="410" y="285" />
              <mxPoint x="450" y="285" />
              <mxPoint x="490" y="305" />
              <mxPoint x="520" y="345" />
              <mxPoint x="520" y="395" />
              <mxPoint x="510" y="435" />
              <mxPoint x="490" y="465" />
              <mxPoint x="450" y="485" />
              <mxPoint x="400" y="495" />
              <mxPoint x="360" y="485" />
              <mxPoint x="330" y="475" />
              <mxPoint x="300" y="455" />
              <mxPoint x="270" y="430" />
              <mxPoint x="260" y="385" />
              <mxPoint x="260" y="315" />
              <mxPoint x="290" y="265" />
              <mxPoint x="330" y="235" />
              <mxPoint x="390" y="215" />
              <mxPoint x="480" y="225" />
              <mxPoint x="550" y="265" />
              <mxPoint x="580" y="305" />
              <mxPoint x="590" y="355" />
              <mxPoint x="590" y="445" />
              <mxPoint x="540" y="525" />
              <mxPoint x="450" y="560" />
              <mxPoint x="330" y="560" />
              <mxPoint x="240" y="510" />
              <mxPoint x="200" y="445" />
              <mxPoint x="190" y="370" />
              <mxPoint x="200" y="285" />
              <mxPoint x="250" y="200" />
              <mxPoint x="330" y="160" />
              <mxPoint x="430" y="150" />
              <mxPoint x="500" y="160" />
              <mxPoint x="570" y="190" />
            </Array>
          </mxGeometry>
        </mxCell>
        <mxCell id="ZraUH0Yu_4j9brqtkidw-2" value="User Requirement Specification" style="text;html=1;strokeColor=none;fillColor=none;align=center;verticalAlign=middle;whiteSpace=wrap;rounded=0;" vertex="1" parent="1">
          <mxGeometry x="280" y="380" width="40" height="20" as="geometry" />
        </mxCell>
        <mxCell id="ZraUH0Yu_4j9brqtkidw-3" value="Feasibility Study" style="text;html=1;strokeColor=none;fillColor=none;align=center;verticalAlign=middle;whiteSpace=wrap;rounded=0;" vertex="1" parent="1">
          <mxGeometry x="370" y="310" width="80" height="20" as="geometry" />
        </mxCell>
        <mxCell id="ZraUH0Yu_4j9brqtkidw-4" value="User Requirements Elicitation" style="text;html=1;strokeColor=none;fillColor=none;align=center;verticalAlign=middle;whiteSpace=wrap;rounded=0;" vertex="1" parent="1">
          <mxGeometry x="450" y="400" width="50" height="10" as="geometry" />
        </mxCell>
        <mxCell id="ZraUH0Yu_4j9brqtkidw-7" value="Start" style="text;html=1;strokeColor=none;fillColor=none;align=center;verticalAlign=middle;whiteSpace=wrap;rounded=0;" vertex="1" parent="1">
          <mxGeometry x="360" y="390" width="40" height="20" as="geometry" />
        </mxCell>
        <mxCell id="ZraUH0Yu_4j9brqtkidw-8" value="Prototyping" style="text;html=1;strokeColor=none;fillColor=none;align=center;verticalAlign=middle;whiteSpace=wrap;rounded=0;" vertex="1" parent="1">
          <mxGeometry x="390" y="250" width="40" height="20" as="geometry" />
        </mxCell>
        <mxCell id="ZraUH0Yu_4j9brqtkidw-9" value="System Requirements Elicitation" style="text;html=1;strokeColor=none;fillColor=none;align=center;verticalAlign=middle;whiteSpace=wrap;rounded=0;" vertex="1" parent="1">
          <mxGeometry x="520" y="440" width="40" height="20" as="geometry" />
        </mxCell>
        <mxCell id="ZraUH0Yu_4j9brqtkidw-10" value="System Requirement Specification" style="text;html=1;strokeColor=none;fillColor=none;align=center;verticalAlign=middle;whiteSpace=wrap;rounded=0;" vertex="1" parent="1">
          <mxGeometry x="240" y="450" width="40" height="20" as="geometry" />
        </mxCell>
        <mxCell id="ZraUH0Yu_4j9brqtkidw-12" value="Review" style="text;html=1;strokeColor=none;fillColor=none;align=center;verticalAlign=middle;whiteSpace=wrap;rounded=0;" vertex="1" parent="1">
          <mxGeometry x="390" y="190" width="40" height="20" as="geometry" />
        </mxCell>
        <mxCell id="ZraUH0Yu_4j9brqtkidw-14" value="&lt;b&gt;System Requirements Document&lt;/b&gt;" style="text;html=1;strokeColor=none;fillColor=none;align=center;verticalAlign=middle;whiteSpace=wrap;rounded=0;" vertex="1" parent="1">
          <mxGeometry x="600" y="230" width="40" height="20" as="geometry" />
        </mxCell>
        <mxCell id="ZraUH0Yu_4j9brqtkidw-15" value="" style="endArrow=none;html=1;" edge="1" parent="1">
          <mxGeometry width="50" height="50" relative="1" as="geometry">
            <mxPoint x="410" y="380" as="sourcePoint" />
            <mxPoint x="550" y="180" as="targetPoint" />
          </mxGeometry>
        </mxCell>
        <mxCell id="ZraUH0Yu_4j9brqtkidw-16" value="" style="endArrow=none;html=1;" edge="1" parent="1">
          <mxGeometry width="50" height="50" relative="1" as="geometry">
            <mxPoint x="410" y="380" as="sourcePoint" />
            <mxPoint x="220" y="250" as="targetPoint" />
          </mxGeometry>
        </mxCell>
        <mxCell id="ZraUH0Yu_4j9brqtkidw-17" value="" style="endArrow=none;html=1;" edge="1" parent="1">
          <mxGeometry width="50" height="50" relative="1" as="geometry">
            <mxPoint x="400" y="560" as="sourcePoint" />
            <mxPoint x="410" y="380" as="targetPoint" />
          </mxGeometry>
        </mxCell>
        <mxCell id="ZraUH0Yu_4j9brqtkidw-18" value="Requirement Elicitation" style="text;html=1;strokeColor=none;fillColor=none;align=center;verticalAlign=middle;whiteSpace=wrap;rounded=0;" vertex="1" parent="1">
          <mxGeometry x="580" y="500" width="40" height="20" as="geometry" />
        </mxCell>
        <mxCell id="ZraUH0Yu_4j9brqtkidw-19" value="Requirement Specification" style="text;html=1;strokeColor=none;fillColor=none;align=center;verticalAlign=middle;whiteSpace=wrap;rounded=0;" vertex="1" parent="1">
          <mxGeometry x="150" y="480" width="40" height="20" as="geometry" />
        </mxCell>
        <mxCell id="ZraUH0Yu_4j9brqtkidw-20" value="Requirement Validation" style="text;html=1;strokeColor=none;fillColor=none;align=center;verticalAlign=middle;whiteSpace=wrap;rounded=0;" vertex="1" parent="1">
          <mxGeometry x="380" y="120" width="40" height="20" as="geometry" />
        </mxCell>
      </root>
    </mxGraphModel>
  </diagram>
</mxfile>
